# xmcd
#
# Track frame offsets:
#	150
#	15017
#	32145
#	50030
#	64094
#	81060
#	95436
#	112773
#	130184
#	145923
#	166164
#	182424
#	199488
#	224520
#	243118
#
# Disc length: 3469 seconds
#
# Revision: 1
# Processed by: cddbd v1.5.2PL0 Copyright (c) Steve Scherf et al.
# Submitted via: audiograbber 1.83.01
#
DISCID=c30d8b0f
DTITLE=JonesTM - HC200742
DYEAR=2007
DGENRE=Country
TTITLE0=Brooks and Dunn - Cowboy Town
TTITLE1=Josh Gracin - We Weren't Crazy
TTITLE2=Phil Vassar - Love Is A Beautiful Thing
TTITLE3=Julie Ingram - Anytime Anywhere [Radio Edit]
TTITLE4=Jamie Lee Thurston - Dear God [Radio Single]
TTITLE5=Toby Keith - Get My Drink On [Album Version]
TTITLE6=Deana Carter Feat. Willie Nelson - On The Road Again
TTITLE7=Bon Jovi Feat. LeAnn Rimes - Till We Ain't Strangers Anymore
TTITLE8=Billy Ray Cyrus Feat. Miley Cyrus - Ready, Set, Don't Go [Radio Edit]
TTITLE9=Temptations - How Deep Is Your Love
TTITLE10=Razah - Rain [Radio]
TTITLE11=Will Downing - After Tonight [Radio Edit]
TTITLE12=Darryl Williams - Take It Slow [Album Version]
TTITLE13=David Belmont - Germania [Radio Edit]
TTITLE14=Mr. Groove - Venice Wind [Radio Edit]
EXTD=
EXTT0=
EXTT1=
EXTT2=
EXTT3=
EXTT4=
EXTT5=
EXTT6=
EXTT7=
EXTT8=
EXTT9=
EXTT10=
EXTT11=
EXTT12=
EXTT13=
EXTT14=
PLAYORDER=
